<?xml version="1.0" encoding="UTF-8" standalone="no"?>
<!-- Generator: Gravit.io -->
<svg xmlns="http://www.w3.org/2000/svg" xmlns:xlink="http://www.w3.org/1999/xlink" style="isolation:isolate" viewBox="0 0 117 25" width="117" height="25"><defs><clipPath id="_clipPath_SYupo6PXoIHrmBxSnyG6Zm3CkOv6Y3kH"><rect width="117" height="25"/></clipPath></defs><g clip-path="url(#_clipPath_SYupo6PXoIHrmBxSnyG6Zm3CkOv6Y3kH)"><clipPath id="_clipPath_CNoxxMFNoJRHg10cjf2DDSBzG3hpCgRY"><rect x="0" y="0" width="40" height="25" transform="matrix(1,0,0,1,0,0)" fill="rgb(255,255,255)"/></clipPath><g clip-path="url(#_clipPath_CNoxxMFNoJRHg10cjf2DDSBzG3hpCgRY)"><g><path d=" M 12.667 12.438 L 0 0 L 27.333 0 L 40 12.438 L 27.333 24.877 L 0 24.877 L 12.667 12.438 Z " fill="rgb(254,239,117)"/></g></g><clipPath id="_clipPath_BphR2eWBnItXEPaXixt2BbfDJe4JMVGH"><rect x="39" y="0" width="40" height="25" transform="matrix(1,0,0,1,0,0)" fill="rgb(255,255,255)"/></clipPath><g clip-path="url(#_clipPath_BphR2eWBnItXEPaXixt2BbfDJe4JMVGH)"><g><path d=" M 51.667 12.438 L 39 0 L 66.333 0 L 79 12.438 L 66.333 24.877 L 39 24.877 L 51.667 12.438 Z " fill="rgb(243,126,58)"/></g></g><path d=" M 89.667 12.499 L 77 0.061 L 104.333 0.061 L 117 12.499 L 104.333 24.939 L 77 24.939 L 89.667 12.499 Z " fill="rgb(237,61,115)"/></g></svg>